<svg xmlns="http://www.w3.org/2000/svg" xmlns:xlink="http://www.w3.org/1999/xlink" viewBox="0,0,256,256" width="64px" height="64px" fill-rule="nonzero"><g fill="#fcc419" fill-rule="nonzero" stroke="none" stroke-width="1" stroke-linecap="butt" stroke-linejoin="miter" stroke-miterlimit="10" stroke-dasharray="" stroke-dashoffset="0" font-family="none" font-weight="none" font-size="none" text-anchor="none" style="mix-blend-mode: normal"><g transform="scale(4,4)"><path d="M38.51563,11.07422c-0.30922,-0.00837 -0.62116,-0.00778 -0.93555,0.00195c-3.77263,0.11681 -7.89609,1.57578 -11.72852,5.4082c-4.24549,4.24549 -5.26437,9.08856 -4.86133,13.26367c0.3598,3.72712 1.76972,6.78105 2.92773,8.87305c-2.90456,1.61538 -7.07759,4.53001 -10.42383,7.81836c-1.81363,1.78226 -3.34432,3.61325 -4.19141,5.41797c-0.42354,0.90236 -0.68394,1.81171 -0.65039,2.72656c0.03355,0.91485 0.40542,1.82518 1.10156,2.52148c0.7513,0.75148 1.8195,1.01507 2.80664,0.875c0.98714,-0.14007 1.94736,-0.59757 2.92773,-1.22656c1.96076,-1.25798 4.01591,-3.25663 5.93945,-5.375c3.30291,-3.63745 5.77742,-7.09337 6.52734,-8.1543c0.47974,0.39695 0.91836,0.81649 2.23633,1.61914c1.84072,1.121 4.2606,2.28646 6.76758,2.23438c0.55217,-0.01149 0.99052,-0.46833 0.9792,-1.0205c-0.01132,-0.55217 -0.46804,-0.99066 -1.02021,-0.9795c-1.82502,0.03792 -4.00772,-0.91841 -5.6875,-1.94141c-1.67978,-1.023 -2.83398,-2.04883 -2.83398,-2.04883c-0.2139,-0.19012 -0.499,-0.2795 -0.78315,-0.24552c-0.28415,0.03398 -0.54014,0.18806 -0.70318,0.42325c0,0 -3.23498,4.66403 -6.96289,8.76953c-1.86396,2.05275 -3.86187,3.96036 -5.53711,5.03516c-0.83762,0.5374 -1.59158,0.85344 -2.12891,0.92969c-0.53732,0.07624 -0.80408,0.00068 -1.11328,-0.30859c-0.36436,-0.36444 -0.4982,-0.70656 -0.51562,-1.18164c-0.01742,-0.47508 0.12775,-1.09287 0.46094,-1.80273c0.66638,-1.41972 2.06151,-3.1518 3.78125,-4.8418c3.43949,-3.37999 8.18288,-6.66314 10.76563,-7.99023c0.24535,-0.12616 0.42768,-0.34807 0.50386,-0.61323c0.07618,-0.26516 0.03945,-0.55001 -0.10151,-0.78716c-1.11126,-1.87612 -2.72233,-5.19183 -3.08203,-8.91797c-0.3597,-3.72613 0.45465,-7.8277 4.28516,-11.6582c4.6841,-4.6841 9.46007,-5.3504 13.57031,-4.56445c4.11024,0.78595 7.54448,3.17144 8.9375,4.56445c1.54784,1.54784 3.70514,4.87804 4.2207,8.6582c0.51556,3.78016 -0.44733,8.01545 -5.23437,11.98047c-4.24213,3.51351 -8.12267,3.69224 -11.36914,2.69922c-3.24647,-0.99302 -5.83742,-3.30795 -6.91797,-4.74219c-1.13184,-1.50258 -2.42299,-4.10745 -2.69922,-6.9375c-0.27623,-2.83005 0.37834,-5.86271 3.14844,-8.63281c1.94403,-1.94403 4.02341,-2.62943 5.97852,-2.75391c1.9551,-0.12447 3.77968,0.35009 5.00977,0.80664c0.43552,0.16164 0.63689,0.64831 0.44727,1.08984c-0.00334,0.00712 -0.0066,0.01429 -0.00977,0.02148c-0.26568,0.65976 -0.95875,1.019 -1.61914,0.83594c-1.92919,-0.53558 -5.14378,-0.7829 -7.71875,1.68359c-1.25542,1.20235 -1.15604,3.28366 0.21484,4.35547c0.00065,0.00065 0.0013,0.0013 0.00195,0.00195l0.12695,0.09961v-0.00195c1.0525,0.82116 2.51129,0.76347 3.54102,0c0.76091,-0.56481 1.94022,-1.14372 4.29883,0.29102c0.30547,0.20417 0.6983,0.22441 1.02313,0.0527c0.32483,-0.17171 0.52935,-0.50771 0.53268,-0.87511c0.00333,-0.36741 -0.19508,-0.70705 -0.51674,-0.88462c-2.8954,-1.76127 -5.28021,-1.11664 -6.5293,-0.18945c-0.37028,0.27453 -0.79764,0.28013 -1.11914,0.0293c-0.00065,0 -0.0013,0 -0.00195,0l-0.12695,-0.09961c-0.4329,-0.34055 -0.46237,-0.95102 -0.0625,-1.33398c1.93503,-1.85351 4.23597,-1.63754 5.80078,-1.20312c0,0.00065 0,0.0013 0,0.00195c1.6518,0.45788 3.36609,-0.44425 4.00195,-2.00781c0.61623,-1.45567 -0.09,-3.18554 -1.58984,-3.74219c-1.40492,-0.52144 -3.48338,-1.07726 -5.83203,-0.92773c-2.34865,0.14953 -4.97366,1.04397 -7.26563,3.33594c-3.1879,3.1879 -4.04638,6.94549 -3.72461,10.24219c0.32177,3.2967 1.74163,6.15289 3.0918,7.94531c1.36045,1.80576 4.16061,4.29769 7.93164,5.45117c3.77103,1.15348 8.53365,0.81818 13.22852,-3.07031c5.24096,-4.34098 6.53385,-9.44718 5.94141,-13.79102c-0.5924,-4.34388 -2.90691,-7.92058 -4.78906,-9.80273c-1.72098,-1.72099 -5.35135,-4.23118 -9.97461,-5.11523c-0.86686,-0.16576 -1.76959,-0.2698 -2.69727,-0.29492z"></path></g></g></svg>